<svg width="74" height="75" viewBox="0 0 74 75" fill="none" xmlns="http://www.w3.org/2000/svg">
<g clip-path="url(#clip0_1_54)">
<path d="M53.9688 0.5H20.0311C8.98576 0.5 0 9.48576 0 20.5311V54.4693C0 65.5141 8.98576 74.4999 20.0311 74.4999H53.9693C65.0141 74.4999 73.9999 65.5141 73.9999 54.4693V20.5311C73.9999 9.48576 65.0141 0.5 53.9688 0.5V0.5ZM69.6617 54.4693C69.6617 63.122 62.622 70.1617 53.9688 70.1617H20.0311C11.3779 70.1617 4.33819 63.122 4.33819 54.4693V20.5311C4.33819 11.8779 11.3779 4.83819 20.0311 4.83819H53.9693C62.622 4.83819 69.6617 11.8779 69.6617 20.5311V54.4693Z" fill="white" fill-opacity="0.8"/>
<path d="M36.9996 17.2664C25.8425 17.2664 16.7658 26.3431 16.7658 37.5002C16.7658 48.6573 25.8425 57.734 36.9996 57.734C48.1567 57.734 57.2334 48.6573 57.2334 37.5002C57.2334 26.3431 48.1567 17.2664 36.9996 17.2664ZM36.9996 53.3958C28.2351 53.3958 21.104 46.2652 21.104 37.5002C21.104 28.7357 28.2351 21.6046 36.9996 21.6046C45.7646 21.6046 52.8952 28.7357 52.8952 37.5002C52.8952 46.2652 45.7646 53.3958 36.9996 53.3958Z" fill="white" fill-opacity="0.8"/>
<path d="M57.718 10.0805C54.4209 10.0805 51.7392 12.7628 51.7392 16.0594C51.7392 19.3565 54.4209 22.0388 57.718 22.0388C61.0151 22.0388 63.6974 19.3565 63.6974 16.0594C63.6974 12.7622 61.0151 10.0805 57.718 10.0805ZM57.718 17.7C56.8136 17.7 56.0774 16.9638 56.0774 16.0594C56.0774 15.1543 56.8136 14.4187 57.718 14.4187C58.623 14.4187 59.3592 15.1543 59.3592 16.0594C59.3592 16.9638 58.623 17.7 57.718 17.7Z" fill="white" fill-opacity="0.8"/>
</g>
<defs>
<clipPath id="clip0_1_54">
<rect width="74" height="74" fill="white" transform="translate(0 0.5)"/>
</clipPath>
</defs>
</svg>
