<svg width="40" height="41" viewBox="0 0 40 41" fill="none" xmlns="http://www.w3.org/2000/svg">
<circle cx="20" cy="20.5" r="20" fill="#928D8D"/>
<g clip-path="url(#clip0_2_7)">
<path d="M25.5034 8.5H14.4966C10.9143 8.5 8 11.4143 8 14.9966V26.0036C8 29.5857 10.9143 32.5 14.4966 32.5H25.5036C29.0857 32.5 32 29.5857 32 26.0036V14.9966C32 11.4143 29.0857 8.5 25.5034 8.5V8.5ZM30.593 26.0036C30.593 28.8098 28.3098 31.093 25.5034 31.093H14.4966C11.6901 31.093 9.40698 28.8098 9.40698 26.0036V14.9966C9.40698 12.1901 11.6901 9.90698 14.4966 9.90698H25.5036C28.3098 9.90698 30.593 12.1901 30.593 14.9966V26.0036Z" fill="white"/>
<path d="M20 13.9378C16.3815 13.9378 13.4377 16.8816 13.4377 20.5001C13.4377 24.1186 16.3815 27.0624 20 27.0624C23.6185 27.0624 26.5623 24.1186 26.5623 20.5001C26.5623 16.8816 23.6185 13.9378 20 13.9378V13.9378ZM20 25.6554C17.1575 25.6554 14.8447 23.3428 14.8447 20.5001C14.8447 17.6576 17.1575 15.3448 20 15.3448C22.8427 15.3448 25.1553 17.6576 25.1553 20.5001C25.1553 23.3428 22.8427 25.6554 20 25.6554V25.6554Z" fill="white"/>
<path d="M26.7194 11.6072C25.65 11.6072 24.7803 12.4772 24.7803 13.5463C24.7803 14.6156 25.65 15.4856 26.7194 15.4856C27.7887 15.4856 28.6586 14.6156 28.6586 13.5463C28.6586 12.477 27.7887 11.6072 26.7194 11.6072ZM26.7194 14.0784C26.426 14.0784 26.1873 13.8396 26.1873 13.5463C26.1873 13.2528 26.426 13.0142 26.7194 13.0142C27.0129 13.0142 27.2517 13.2528 27.2517 13.5463C27.2517 13.8396 27.0129 14.0784 26.7194 14.0784Z" fill="white"/>
</g>
<defs>
<clipPath id="clip0_2_7">
<rect width="24" height="24" fill="white" transform="translate(8 8.5)"/>
</clipPath>
</defs>
</svg>
